{
	"asset":{
		"generator":"Khronos glTF Blender I/O v3.6.28",
		"version":"2.0"
	},
	"scene":0,
	"scenes":[
		{
			"name":"Scene",
			"nodes":[
				0
			]
		}
	],
	"nodes":[
		{
			"mesh":0,
			"name":"Cone"
		}
	],
	"meshes":[
		{
			"name":"Cone",
			"primitives":[
				{
					"attributes":{
						"POSITION":0,
						"NORMAL":1,
						"TEXCOORD_0":2
					},
					"indices":3
				}
			]
		}
	],
	"accessors":[
		{
			"bufferView":0,
			"componentType":5126,
			"count":33566,
			"max":[
				16.285295486450195,
				1,
				16.197484970092773
			],
			"min":[
				-16.197484970092773,
				-5.132709980010986,
				-16.197484970092773
			],
			"type":"VEC3"
		},
		{
			"bufferView":1,
			"componentType":5126,
			"count":33566,
			"type":"VEC3"
		},
		{
			"bufferView":2,
			"componentType":5126,
			"count":33566,
			"type":"VEC2"
		},
		{
			"bufferView":3,
			"componentType":5123,
			"count":51072,
			"type":"SCALAR"
		}
	],
	"bufferViews":[
		{
			"buffer":0,
			"byteLength":402792,
			"byteOffset":0,
			"target":34962
		},
		{
			"buffer":0,
			"byteLength":402792,
			"byteOffset":402792,
			"target":34962
		},
		{
			"buffer":0,
			"byteLength":268528,
			"byteOffset":805584,
			"target":34962
		},
		{
			"buffer":0,
			"byteLength":102144,
			"byteOffset":1074112,
			"target":34963
		}
	],
	"buffers":[
		{
			"byteLength":1176256,
			"uri":"data:application/octet-stream;base64,"
		}
	]
}
