{"asset":{"version":"2.0","generator":"Blockbench 4.8.3 glTF exporter"},"scenes":[{"nodes":[19],"name":"blockbench_export"}],"scene":0,"nodes":[{"name":"cube","mesh":0},{"translation":[1.25,3,0],"name":"4c8f011c-57c3-8144-de1d-f38dc9af45ce"},{"name":"cube","mesh":1},{"name":"cube","mesh":2},{"name":"cube","mesh":3},{"name":"cube","mesh":4},{"name":"cube","mesh":5},{"name":"cube","mesh":6},{"translation":[0,-0.125,0],"name":"pyramid","mesh":7},{"rotation":[0.09229595564125637,-0.7010573846499779,-0.09229595564125664,0.7010573846499781],"translation":[0,-1,0],"name":"cube","mesh":8},{"rotation":[-0.0922959556412577,0.7010573846499781,-0.0922959556412582,0.7010573846499775],"translation":[0,-1,0],"name":"cube","mesh":9},{"rotation":[0,0,-0.13052619222005157,0.9914448613738104],"translation":[0,-1,0],"name":"cube","mesh":10},{"rotation":[-0.1305261922200515,0.9914448613738104,-6.070848880062641e-17,7.99242417535891e-18],"translation":[0,-1,0],"name":"cube","mesh":11},{"rotation":[0.7071067811865477,1.942890293094024e-15,0.7071067811865476,-1.7763568394002505e-15],"translation":[0,3.125,0],"name":"bottom2","children":[9,10,11,12]},{"rotation":[0.09229595564125637,-0.7010573846499779,-0.09229595564125664,0.7010573846499781],"translation":[0,2.0625,0],"name":"cube","mesh":12},{"rotation":[-0.1305261922200515,0.9914448613738104,-6.070848880062641e-17,7.99242417535891e-18],"translation":[0,2.0625,0],"name":"cube","mesh":13},{"rotation":[0,0,-0.13052619222005157,0.9914448613738104],"translation":[0,2.0625,0],"name":"cube","mesh":14},{"rotation":[-0.0922959556412577,0.7010573846499781,-0.0922959556412582,0.7010573846499775],"translation":[0,2.0625,0],"name":"cube","mesh":15},{"rotation":[0,0.7071067811865475,0,0.7071067811865476],"name":"bottom","children":[14,15,16,17]},{"children":[0,1,2,3,4,5,6,7,8,13,18]}],"bufferViews":[{"buffer":0,"byteOffset":0,"byteLength":288,"target":34962,"byteStride":12},{"buffer":0,"byteOffset":288,"byteLength":288,"target":34962,"byteStride":12},{"buffer":0,"byteOffset":576,"byteLength":192,"target":34962,"byteStride":8},{"buffer":0,"byteOffset":768,"byteLength":48,"target":34963},{"buffer":0,"byteOffset":816,"byteLength":288,"target":34962,"byteStride":12},{"buffer":0,"byteOffset":1104,"byteLength":288,"target":34962,"byteStride":12},{"buffer":0,"byteOffset":1392,"byteLength":192,"target":34962,"byteStride":8},{"buffer":0,"byteOffset":1584,"byteLength":72,"target":34963},{"buffer":0,"byteOffset":1656,"byteLength":288,"target":34962,"byteStride":12},{"buffer":0,"byteOffset":1944,"byteLength":288,"target":34962,"byteStride":12},{"buffer":0,"byteOffset":2232,"byteLength":192,"target":34962,"byteStride":8},{"buffer":0,"byteOffset":2424,"byteLength":72,"target":34963},{"buffer":0,"byteOffset":2496,"byteLength":288,"target":34962,"byteStride":12},{"buffer":0,"byteOffset":2784,"byteLength":288,"target":34962,"byteStride":12},{"buffer":0,"byteOffset":3072,"byteLength":192,"target":34962,"byteStride":8},{"buffer":0,"byteOffset":3264,"byteLength":72,"target":34963},{"buffer":0,"byteOffset":3336,"byteLength":288,"target":34962,"byteStride":12},{"buffer":0,"byteOffset":3624,"byteLength":288,"target":34962,"byteStride":12},{"buffer":0,"byteOffset":3912,"byteLength":192,"target":34962,"byteStride":8},{"buffer":0,"byteOffset":4104,"byteLength":72,"target":34963},{"buffer":0,"byteOffset":4176,"byteLength":288,"target":34962,"byteStride":12},{"buffer":0,"byteOffset":4464,"byteLength":288,"target":34962,"byteStride":12},{"buffer":0,"byteOffset":4752,"byteLength":192,"target":34962,"byteStride":8},{"buffer":0,"byteOffset":4944,"byteLength":72,"target":34963},{"buffer":0,"byteOffset":5016,"byteLength":288,"target":34962,"byteStride":12},{"buffer":0,"byteOffset":5304,"byteLength":288,"target":34962,"byteStride":12},{"buffer":0,"byteOffset":5592,"byteLength":192,"target":34962,"byteStride":8},{"buffer":0,"byteOffset":5784,"byteLength":72,"target":34963},{"buffer":0,"byteOffset":5856,"byteLength":192,"target":34962,"byteStride":12},{"buffer":0,"byteOffset":6048,"byteLength":192,"target":34962,"byteStride":12},{"buffer":0,"byteOffset":6240,"byteLength":128,"target":34962,"byteStride":8},{"buffer":0,"byteOffset":6368,"byteLength":36,"target":34963},{"buffer":0,"byteOffset":6404,"byteLength":288,"target":34962,"byteStride":12},{"buffer":0,"byteOffset":6692,"byteLength":288,"target":34962,"byteStride":12},{"buffer":0,"byteOffset":6980,"byteLength":192,"target":34962,"byteStride":8},{"buffer":0,"byteOffset":7172,"byteLength":60,"target":34963},{"buffer":0,"byteOffset":7232,"byteLength":288,"target":34962,"byteStride":12},{"buffer":0,"byteOffset":7520,"byteLength":288,"target":34962,"byteStride":12},{"buffer":0,"byteOffset":7808,"byteLength":192,"target":34962,"byteStride":8},{"buffer":0,"byteOffset":8000,"byteLength":60,"target":34963},{"buffer":0,"byteOffset":8060,"byteLength":288,"target":34962,"byteStride":12},{"buffer":0,"byteOffset":8348,"byteLength":288,"target":34962,"byteStride":12},{"buffer":0,"byteOffset":8636,"byteLength":192,"target":34962,"byteStride":8},{"buffer":0,"byteOffset":8828,"byteLength":60,"target":34963},{"buffer":0,"byteOffset":8888,"byteLength":288,"target":34962,"byteStride":12},{"buffer":0,"byteOffset":9176,"byteLength":288,"target":34962,"byteStride":12},{"buffer":0,"byteOffset":9464,"byteLength":192,"target":34962,"byteStride":8},{"buffer":0,"byteOffset":9656,"byteLength":60,"target":34963},{"buffer":0,"byteOffset":9716,"byteLength":288,"target":34962,"byteStride":12},{"buffer":0,"byteOffset":10004,"byteLength":288,"target":34962,"byteStride":12},{"buffer":0,"byteOffset":10292,"byteLength":192,"target":34962,"byteStride":8},{"buffer":0,"byteOffset":10484,"byteLength":48,"target":34963},{"buffer":0,"byteOffset":10532,"byteLength":288,"target":34962,"byteStride":12},{"buffer":0,"byteOffset":10820,"byteLength":288,"target":34962,"byteStride":12},{"buffer":0,"byteOffset":11108,"byteLength":192,"target":34962,"byteStride":8},{"buffer":0,"byteOffset":11300,"byteLength":48,"target":34963},{"buffer":0,"byteOffset":11348,"byteLength":288,"target":34962,"byteStride":12},{"buffer":0,"byteOffset":11636,"byteLength":288,"target":34962,"byteStride":12},{"buffer":0,"byteOffset":11924,"byteLength":192,"target":34962,"byteStride":8},{"buffer":0,"byteOffset":12116,"byteLength":48,"target":34963},{"buffer":0,"byteOffset":12164,"byteLength":288,"target":34962,"byteStride":12},{"buffer":0,"byteOffset":12452,"byteLength":288,"target":34962,"byteStride":12},{"buffer":0,"byteOffset":12740,"byteLength":192,"target":34962,"byteStride":8},{"buffer":0,"byteOffset":12932,"byteLength":48,"target":34963}],"buffers":[{"byteLength":12980,"uri":"data:application/octet-stream;base64,"}],"accessors":[{"bufferView":0,"componentType":5126,"count":24,"max":[0.5,4.25,0.5],"min":[-0.5,2.625,-0.5],"type":"VEC3"},{"bufferView":1,"componentType":5126,"count":24,"max":[1,1,1],"min":[-1,-1,-1],"type":"VEC3"},{"bufferView":2,"componentType":5126,"count":24,"max":[0.484375,0.203125],"min":[0.28125,0],"type":"VEC2"},{"bufferView":3,"componentType":5123,"count":24,"max":[23],"min":[0],"type":"SCALAR"},{"bufferView":4,"componentType":5126,"count":24,"max":[1.125,1.625,1.125],"min":[0.875,0,0.875],"type":"VEC3"},{"bufferView":5,"componentType":5126,"count":24,"max":[1,1,1],"min":[-1,-1,-1],"type":"VEC3"},{"bufferView":6,"componentType":5126,"count":24,"max":[0.28125,0.265625],"min":[0.25,0],"type":"VEC2"},{"bufferView":7,"componentType":5123,"count":36,"max":[23],"min":[0],"type":"SCALAR"},{"bufferView":8,"componentType":5126,"count":24,"max":[-0.875,1.625,1.125],"min":[-1.125,0,0.875],"type":"VEC3"},{"bufferView":9,"componentType":5126,"count":24,"max":[1,1,1],"min":[-1,-1,-1],"type":"VEC3"},{"bufferView":10,"componentType":5126,"count":24,"max":[0.28125,0.265625],"min":[0.25,0],"type":"VEC2"},{"bufferView":11,"componentType":5123,"count":36,"max":[23],"min":[0],"type":"SCALAR"},{"bufferView":12,"componentType":5126,"count":24,"max":[-0.875,1.625,-0.875],"min":[-1.125,0,-1.125],"type":"VEC3"},{"bufferView":13,"componentType":5126,"count":24,"max":[1,1,1],"min":[-1,-1,-1],"type":"VEC3"},{"bufferView":14,"componentType":5126,"count":24,"max":[0.28125,0.265625],"min":[0.25,0],"type":"VEC2"},{"bufferView":15,"componentType":5123,"count":36,"max":[23],"min":[0],"type":"SCALAR"},{"bufferView":16,"componentType":5126,"count":24,"max":[1.125,1.625,-0.875],"min":[0.875,0,-1.125],"type":"VEC3"},{"bufferView":17,"componentType":5126,"count":24,"max":[1,1,1],"min":[-1,-1,-1],"type":"VEC3"},{"bufferView":18,"componentType":5126,"count":24,"max":[0.28125,0.265625],"min":[0.25,0],"type":"VEC2"},{"bufferView":19,"componentType":5123,"count":36,"max":[23],"min":[0],"type":"SCALAR"},{"bufferView":20,"componentType":5126,"count":24,"max":[0.75,4.375,0.75],"min":[-0.75,4.25,-0.75],"type":"VEC3"},{"bufferView":21,"componentType":5126,"count":24,"max":[1,1,1],"min":[-1,-1,-1],"type":"VEC3"},{"bufferView":22,"componentType":5126,"count":24,"max":[0.25,0.40625],"min":[0,0.140625],"type":"VEC2"},{"bufferView":23,"componentType":5123,"count":36,"max":[23],"min":[0],"type":"SCALAR"},{"bufferView":24,"componentType":5126,"count":24,"max":[1,1.25,1],"min":[-1,0.125,-1],"type":"VEC3"},{"bufferView":25,"componentType":5126,"count":24,"max":[1,1,1],"min":[-1,-1,-1],"type":"VEC3"},{"bufferView":26,"componentType":5126,"count":24,"max":[0.25,0.390625],"min":[0,0],"type":"VEC2"},{"bufferView":27,"componentType":5123,"count":36,"max":[23],"min":[0],"type":"SCALAR"},{"bufferView":28,"componentType":5126,"count":16,"max":[1,4.375,1],"min":[-1,1.25,-1],"type":"VEC3"},{"bufferView":29,"componentType":5126,"count":16,"max":[0.952424168586731,0.3047757148742676,0.952424168586731],"min":[-0.952424168586731,-1,-0.952424168586731],"type":"VEC3"},{"bufferView":30,"componentType":5126,"count":16,"max":[0.53125,0.390625],"min":[0,0],"type":"VEC2"},{"bufferView":31,"componentType":5123,"count":18,"max":[15],"min":[0],"type":"SCALAR"},{"bufferView":32,"componentType":5126,"count":24,"max":[-0.625,0.9375,0.25],"min":[-0.75,-1.0625,-0.25],"type":"VEC3"},{"bufferView":33,"componentType":5126,"count":24,"max":[1,1,1],"min":[-1,-1,-1],"type":"VEC3"},{"bufferView":34,"componentType":5126,"count":24,"max":[0.265625,0.484375],"min":[0,0],"type":"VEC2"},{"bufferView":35,"componentType":5123,"count":30,"max":[23],"min":[0],"type":"SCALAR"},{"bufferView":36,"componentType":5126,"count":24,"max":[-0.625,0.9375,0.25],"min":[-0.75,-1.0625,-0.25],"type":"VEC3"},{"bufferView":37,"componentType":5126,"count":24,"max":[1,1,1],"min":[-1,-1,-1],"type":"VEC3"},{"bufferView":38,"componentType":5126,"count":24,"max":[0.265625,0.484375],"min":[0,0],"type":"VEC2"},{"bufferView":39,"componentType":5123,"count":30,"max":[23],"min":[0],"type":"SCALAR"},{"bufferView":40,"componentType":5126,"count":24,"max":[-0.625,0.9375,0.25],"min":[-0.75,-1.0625,-0.25],"type":"VEC3"},{"bufferView":41,"componentType":5126,"count":24,"max":[1,1,1],"min":[-1,-1,-1],"type":"VEC3"},{"bufferView":42,"componentType":5126,"count":24,"max":[0.265625,0.484375],"min":[0,0],"type":"VEC2"},{"bufferView":43,"componentType":5123,"count":30,"max":[23],"min":[0],"type":"SCALAR"},{"bufferView":44,"componentType":5126,"count":24,"max":[-0.625,0.9375,0.25],"min":[-0.75,-1.0625,-0.25],"type":"VEC3"},{"bufferView":45,"componentType":5126,"count":24,"max":[1,1,1],"min":[-1,-1,-1],"type":"VEC3"},{"bufferView":46,"componentType":5126,"count":24,"max":[0.265625,0.484375],"min":[0,0],"type":"VEC2"},{"bufferView":47,"componentType":5123,"count":30,"max":[23],"min":[0],"type":"SCALAR"},{"bufferView":48,"componentType":5126,"count":24,"max":[-0.625,0.9375,0.25],"min":[-0.75,-1.0625,-0.25],"type":"VEC3"},{"bufferView":49,"componentType":5126,"count":24,"max":[1,1,1],"min":[-1,-1,-1],"type":"VEC3"},{"bufferView":50,"componentType":5126,"count":24,"max":[0.25,0.484375],"min":[0,0],"type":"VEC2"},{"bufferView":51,"componentType":5123,"count":24,"max":[23],"min":[0],"type":"SCALAR"},{"bufferView":52,"componentType":5126,"count":24,"max":[-0.625,0.9375,0.25],"min":[-0.75,-1.0625,-0.25],"type":"VEC3"},{"bufferView":53,"componentType":5126,"count":24,"max":[1,1,1],"min":[-1,-1,-1],"type":"VEC3"},{"bufferView":54,"componentType":5126,"count":24,"max":[0.25,0.484375],"min":[0,0],"type":"VEC2"},{"bufferView":55,"componentType":5123,"count":24,"max":[23],"min":[0],"type":"SCALAR"},{"bufferView":56,"componentType":5126,"count":24,"max":[-0.625,0.9375,0.25],"min":[-0.75,-1.0625,-0.25],"type":"VEC3"},{"bufferView":57,"componentType":5126,"count":24,"max":[1,1,1],"min":[-1,-1,-1],"type":"VEC3"},{"bufferView":58,"componentType":5126,"count":24,"max":[0.25,0.484375],"min":[0,0],"type":"VEC2"},{"bufferView":59,"componentType":5123,"count":24,"max":[23],"min":[0],"type":"SCALAR"},{"bufferView":60,"componentType":5126,"count":24,"max":[-0.625,0.9375,0.25],"min":[-0.75,-1.0625,-0.25],"type":"VEC3"},{"bufferView":61,"componentType":5126,"count":24,"max":[1,1,1],"min":[-1,-1,-1],"type":"VEC3"},{"bufferView":62,"componentType":5126,"count":24,"max":[0.25,0.484375],"min":[0,0],"type":"VEC2"},{"bufferView":63,"componentType":5123,"count":24,"max":[23],"min":[0],"type":"SCALAR"}],"materials":[{"pbrMetallicRoughness":{"metallicFactor":0,"roughnessFactor":1,"baseColorTexture":{"index":0}},"alphaMode":"MASK","alphaCutoff":0.05,"doubleSided":true}],"textures":[{"sampler":0,"source":0,"name":"tower.png"}],"samplers":[{"magFilter":9728,"minFilter":9728,"wrapS":33071,"wrapT":33071}],"images":[{"mimeType":"image/png","uri":"data:image/png;base64,"}],"meshes":[{"primitives":[{"mode":4,"attributes":{"POSITION":0,"NORMAL":1,"TEXCOORD_0":2},"indices":3,"material":0}]},{"primitives":[{"mode":4,"attributes":{"POSITION":4,"NORMAL":5,"TEXCOORD_0":6},"indices":7,"material":0}]},{"primitives":[{"mode":4,"attributes":{"POSITION":8,"NORMAL":9,"TEXCOORD_0":10},"indices":11,"material":0}]},{"primitives":[{"mode":4,"attributes":{"POSITION":12,"NORMAL":13,"TEXCOORD_0":14},"indices":15,"material":0}]},{"primitives":[{"mode":4,"attributes":{"POSITION":16,"NORMAL":17,"TEXCOORD_0":18},"indices":19,"material":0}]},{"primitives":[{"mode":4,"attributes":{"POSITION":20,"NORMAL":21,"TEXCOORD_0":22},"indices":23,"material":0}]},{"primitives":[{"mode":4,"attributes":{"POSITION":24,"NORMAL":25,"TEXCOORD_0":26},"indices":27,"material":0}]},{"primitives":[{"mode":4,"attributes":{"POSITION":28,"NORMAL":29,"TEXCOORD_0":30},"indices":31,"material":0}]},{"primitives":[{"mode":4,"attributes":{"POSITION":32,"NORMAL":33,"TEXCOORD_0":34},"indices":35,"material":0}]},{"primitives":[{"mode":4,"attributes":{"POSITION":36,"NORMAL":37,"TEXCOORD_0":38},"indices":39,"material":0}]},{"primitives":[{"mode":4,"attributes":{"POSITION":40,"NORMAL":41,"TEXCOORD_0":42},"indices":43,"material":0}]},{"primitives":[{"mode":4,"attributes":{"POSITION":44,"NORMAL":45,"TEXCOORD_0":46},"indices":47,"material":0}]},{"primitives":[{"mode":4,"attributes":{"POSITION":48,"NORMAL":49,"TEXCOORD_0":50},"indices":51,"material":0}]},{"primitives":[{"mode":4,"attributes":{"POSITION":52,"NORMAL":53,"TEXCOORD_0":54},"indices":55,"material":0}]},{"primitives":[{"mode":4,"attributes":{"POSITION":56,"NORMAL":57,"TEXCOORD_0":58},"indices":59,"material":0}]},{"primitives":[{"mode":4,"attributes":{"POSITION":60,"NORMAL":61,"TEXCOORD_0":62},"indices":63,"material":0}]}]}
